solid 
 facet normal  7.071068e-01  7.071068e-01  0.000000e+00
   outer loop
     vertex  5.000000e+00  5.000000e+00  0.000000e+00
     vertex  1.000000e+01 -4.440892e-16  1.000000e+00
     vertex  1.000000e+01 -4.440892e-16  0.000000e+00
   endloop
 endfacet
 facet normal  7.071068e-01  7.071068e-01 -0.000000e+00
   outer loop
     vertex  5.000000e+00  5.000000e+00  0.000000e+00
     vertex  5.000000e+00  5.000000e+00  1.000000e+00
     vertex  1.000000e+01 -4.440892e-16  1.000000e+00
   endloop
 endfacet
 facet normal -7.071068e-01  7.071068e-01  0.000000e+00
   outer loop
     vertex  4.440892e-16  4.440892e-16  0.000000e+00
     vertex  5.000000e+00  5.000000e+00  1.000000e+00
     vertex  5.000000e+00  5.000000e+00  0.000000e+00
   endloop
 endfacet
 facet normal -7.071068e-01  7.071068e-01  0.000000e+00
   outer loop
     vertex  4.440892e-16  4.440892e-16  0.000000e+00
     vertex  4.440892e-16  4.440892e-16  1.000000e+00
     vertex  5.000000e+00  5.000000e+00  1.000000e+00
   endloop
 endfacet
 facet normal -6.070131e-01 -7.946918e-01  0.000000e+00
   outer loop
     vertex  8.749727e+00  9.550017e-01  0.000000e+00
     vertex  1.000000e+01 -4.440892e-16  0.000000e+00
     vertex  1.000000e+01 -4.440892e-16  1.000000e+00
   endloop
 endfacet
 facet normal -6.070131e-01 -7.946918e-01  0.000000e+00
   outer loop
     vertex  8.749727e+00  9.550017e-01  0.000000e+00
     vertex  1.000000e+01 -4.440892e-16  1.000000e+00
     vertex  8.749727e+00  9.550017e-01  1.000000e+00
   endloop
 endfacet
 facet normal -4.212875e-01 -9.069272e-01  0.000000e+00
   outer loop
     vertex  7.322877e+00  1.617805e+00  0.000000e+00
     vertex  8.749727e+00  9.550017e-01  1.000000e+00
     vertex  7.322877e+00  1.617805e+00  1.000000e+00
   endloop
 endfacet
 facet normal -4.212875e-01 -9.069272e-01  0.000000e+00
   outer loop
     vertex  7.322877e+00  1.617805e+00  0.000000e+00
     vertex  8.749727e+00  9.550017e-01  0.000000e+00
     vertex  8.749727e+00  9.550017e-01  1.000000e+00
   endloop
 endfacet
 facet normal -2.157230e-01 -9.764546e-01  0.000000e+00
   outer loop
     vertex  5.786640e+00  1.957198e+00  0.000000e+00
     vertex  7.322877e+00  1.617805e+00  1.000000e+00
     vertex  5.786640e+00  1.957198e+00  1.000000e+00
   endloop
 endfacet
 facet normal -2.157230e-01 -9.764546e-01  0.000000e+00
   outer loop
     vertex  5.786640e+00  1.957198e+00  0.000000e+00
     vertex  7.322877e+00  1.617805e+00  0.000000e+00
     vertex  7.322877e+00  1.617805e+00  1.000000e+00
   endloop
 endfacet
 facet normal  0.000000e+00 -1.000000e+00  0.000000e+00
   outer loop
     vertex  4.213360e+00  1.957198e+00  0.000000e+00
     vertex  5.786640e+00  1.957198e+00  1.000000e+00
     vertex  4.213360e+00  1.957198e+00  1.000000e+00
   endloop
 endfacet
 facet normal  0.000000e+00 -1.000000e+00  0.000000e+00
   outer loop
     vertex  4.213360e+00  1.957198e+00  0.000000e+00
     vertex  5.786640e+00  1.957198e+00  0.000000e+00
     vertex  5.786640e+00  1.957198e+00  1.000000e+00
   endloop
 endfacet
 facet normal  2.157230e-01 -9.764546e-01  0.000000e+00
   outer loop
     vertex  2.677123e+00  1.617805e+00  0.000000e+00
     vertex  4.213360e+00  1.957198e+00  1.000000e+00
     vertex  2.677123e+00  1.617805e+00  1.000000e+00
   endloop
 endfacet
 facet normal  2.157230e-01 -9.764546e-01  0.000000e+00
   outer loop
     vertex  2.677123e+00  1.617805e+00  0.000000e+00
     vertex  4.213360e+00  1.957198e+00  0.000000e+00
     vertex  4.213360e+00  1.957198e+00  1.000000e+00
   endloop
 endfacet
 facet normal  4.212875e-01 -9.069272e-01  0.000000e+00
   outer loop
     vertex  1.250273e+00  9.550017e-01  0.000000e+00
     vertex  2.677123e+00  1.617805e+00  1.000000e+00
     vertex  1.250273e+00  9.550017e-01  1.000000e+00
   endloop
 endfacet
 facet normal  4.212875e-01 -9.069272e-01  0.000000e+00
   outer loop
     vertex  1.250273e+00  9.550017e-01  0.000000e+00
     vertex  2.677123e+00  1.617805e+00  0.000000e+00
     vertex  2.677123e+00  1.617805e+00  1.000000e+00
   endloop
 endfacet
 facet normal  6.070131e-01 -7.946918e-01  0.000000e+00
   outer loop
     vertex  4.440892e-16  4.440892e-16  0.000000e+00
     vertex  1.250273e+00  9.550017e-01  1.000000e+00
     vertex  4.440892e-16  4.440892e-16  1.000000e+00
   endloop
 endfacet
 facet normal  6.070131e-01 -7.946918e-01  0.000000e+00
   outer loop
     vertex  4.440892e-16  4.440892e-16  0.000000e+00
     vertex  1.250273e+00  9.550017e-01  0.000000e+00
     vertex  1.250273e+00  9.550017e-01  1.000000e+00
   endloop
 endfacet
 facet normal  0.000000e+00  0.000000e+00 -1.000000e+00
   outer loop
     vertex  5.000000e+00  5.000000e+00  0.000000e+00
     vertex  8.749727e+00  9.550017e-01  0.000000e+00
     vertex  7.322877e+00  1.617805e+00  0.000000e+00
   endloop
 endfacet
 facet normal  0.000000e+00  0.000000e+00 -1.000000e+00
   outer loop
     vertex  5.000000e+00  5.000000e+00  0.000000e+00
     vertex  7.322877e+00  1.617805e+00  0.000000e+00
     vertex  5.786640e+00  1.957198e+00  0.000000e+00
   endloop
 endfacet
 facet normal  0.000000e+00 -0.000000e+00 -1.000000e+00
   outer loop
     vertex  5.000000e+00  5.000000e+00  0.000000e+00
     vertex  5.786640e+00  1.957198e+00  0.000000e+00
     vertex  4.213360e+00  1.957198e+00  0.000000e+00
   endloop
 endfacet
 facet normal  0.000000e+00  0.000000e+00 -1.000000e+00
   outer loop
     vertex  5.000000e+00  5.000000e+00  0.000000e+00
     vertex  4.213360e+00  1.957198e+00  0.000000e+00
     vertex  2.677123e+00  1.617805e+00  0.000000e+00
   endloop
 endfacet
 facet normal  0.000000e+00  0.000000e+00 -1.000000e+00
   outer loop
     vertex  5.000000e+00  5.000000e+00  0.000000e+00
     vertex  2.677123e+00  1.617805e+00  0.000000e+00
     vertex  1.250273e+00  9.550017e-01  0.000000e+00
   endloop
 endfacet
 facet normal  0.000000e+00  0.000000e+00 -1.000000e+00
   outer loop
     vertex  1.000000e+01 -4.440892e-16  0.000000e+00
     vertex  8.749727e+00  9.550017e-01  0.000000e+00
     vertex  5.000000e+00  5.000000e+00  0.000000e+00
   endloop
 endfacet
 facet normal  0.000000e+00  0.000000e+00 -1.000000e+00
   outer loop
     vertex  5.000000e+00  5.000000e+00  0.000000e+00
     vertex  1.250273e+00  9.550017e-01  0.000000e+00
     vertex  4.440892e-16  4.440892e-16  0.000000e+00
   endloop
 endfacet
 facet normal  0.000000e+00  0.000000e+00  1.000000e+00
   outer loop
     vertex  5.000000e+00  5.000000e+00  1.000000e+00
     vertex  7.322877e+00  1.617805e+00  1.000000e+00
     vertex  8.749727e+00  9.550017e-01  1.000000e+00
   endloop
 endfacet
 facet normal  0.000000e+00  0.000000e+00  1.000000e+00
   outer loop
     vertex  5.000000e+00  5.000000e+00  1.000000e+00
     vertex  5.786640e+00  1.957198e+00  1.000000e+00
     vertex  7.322877e+00  1.617805e+00  1.000000e+00
   endloop
 endfacet
 facet normal  0.000000e+00  0.000000e+00  1.000000e+00
   outer loop
     vertex  5.000000e+00  5.000000e+00  1.000000e+00
     vertex  4.213360e+00  1.957198e+00  1.000000e+00
     vertex  5.786640e+00  1.957198e+00  1.000000e+00
   endloop
 endfacet
 facet normal  0.000000e+00  0.000000e+00  1.000000e+00
   outer loop
     vertex  5.000000e+00  5.000000e+00  1.000000e+00
     vertex  2.677123e+00  1.617805e+00  1.000000e+00
     vertex  4.213360e+00  1.957198e+00  1.000000e+00
   endloop
 endfacet
 facet normal  0.000000e+00  0.000000e+00  1.000000e+00
   outer loop
     vertex  5.000000e+00  5.000000e+00  1.000000e+00
     vertex  1.250273e+00  9.550017e-01  1.000000e+00
     vertex  2.677123e+00  1.617805e+00  1.000000e+00
   endloop
 endfacet
 facet normal  0.000000e+00  0.000000e+00  1.000000e+00
   outer loop
     vertex  1.000000e+01 -4.440892e-16  1.000000e+00
     vertex  5.000000e+00  5.000000e+00  1.000000e+00
     vertex  8.749727e+00  9.550017e-01  1.000000e+00
   endloop
 endfacet
 facet normal  0.000000e+00  0.000000e+00  1.000000e+00
   outer loop
     vertex  5.000000e+00  5.000000e+00  1.000000e+00
     vertex  4.440892e-16  4.440892e-16  1.000000e+00
     vertex  1.250273e+00  9.550017e-01  1.000000e+00
   endloop
 endfacet
endsolid
