solid 
 facet normal  9.927089e-01  1.205367e-01  0.000000e+00
   outer loop
     vertex  6.796593e+00  1.675210e+00  0.000000e+00
     vertex  7.000000e+00  0.000000e+00  1.000000e+01
     vertex  7.000000e+00  0.000000e+00  0.000000e+00
   endloop
 endfacet
 facet normal  9.927089e-01  1.205367e-01 -0.000000e+00
   outer loop
     vertex  6.796593e+00  1.675210e+00  0.000000e+00
     vertex  6.796593e+00  1.675210e+00  1.000000e+01
     vertex  7.000000e+00  0.000000e+00  1.000000e+01
   endloop
 endfacet
 facet normal  9.350162e-01  3.546049e-01 -0.000000e+00
   outer loop
     vertex  6.198192e+00  3.253062e+00  0.000000e+00
     vertex  6.198192e+00  3.253062e+00  1.000000e+01
     vertex  6.796593e+00  1.675210e+00  1.000000e+01
   endloop
 endfacet
 facet normal  8.229839e-01  5.680647e-01 -0.000000e+00
   outer loop
     vertex  6.198192e+00  3.253062e+00  0.000000e+00
     vertex  5.239575e+00  4.641859e+00  1.000000e+01
     vertex  6.198192e+00  3.253062e+00  1.000000e+01
   endloop
 endfacet
 facet normal  9.350162e-01  3.546049e-01  0.000000e+00
   outer loop
     vertex  6.198192e+00  3.253062e+00  0.000000e+00
     vertex  6.796593e+00  1.675210e+00  1.000000e+01
     vertex  6.796593e+00  1.675210e+00  0.000000e+00
   endloop
 endfacet
 facet normal  8.229839e-01  5.680647e-01 -0.000000e+00
   outer loop
     vertex  5.239575e+00  4.641859e+00  0.000000e+00
     vertex  5.239575e+00  4.641859e+00  1.000000e+01
     vertex  6.198192e+00  3.253062e+00  0.000000e+00
   endloop
 endfacet
 facet normal  6.631227e-01  7.485107e-01 -0.000000e+00
   outer loop
     vertex  3.976453e+00  5.760887e+00  0.000000e+00
     vertex  3.976453e+00  5.760887e+00  1.000000e+01
     vertex  5.239575e+00  4.641859e+00  1.000000e+01
   endloop
 endfacet
 facet normal  6.631227e-01  7.485107e-01  0.000000e+00
   outer loop
     vertex  3.976453e+00  5.760887e+00  0.000000e+00
     vertex  5.239575e+00  4.641859e+00  1.000000e+01
     vertex  5.239575e+00  4.641859e+00  0.000000e+00
   endloop
 endfacet
 facet normal  4.647232e-01  8.854560e-01 -0.000000e+00
   outer loop
     vertex  2.482234e+00  6.545114e+00  0.000000e+00
     vertex  2.482234e+00  6.545114e+00  1.000000e+01
     vertex  3.976453e+00  5.760887e+00  1.000000e+01
   endloop
 endfacet
 facet normal  2.393157e-01  9.709418e-01 -0.000000e+00
   outer loop
     vertex  2.482234e+00  6.545114e+00  0.000000e+00
     vertex  8.437568e-01  6.948962e+00  1.000000e+01
     vertex  2.482234e+00  6.545114e+00  1.000000e+01
   endloop
 endfacet
 facet normal  4.647232e-01  8.854560e-01  0.000000e+00
   outer loop
     vertex  2.482234e+00  6.545114e+00  0.000000e+00
     vertex  3.976453e+00  5.760887e+00  1.000000e+01
     vertex  3.976453e+00  5.760887e+00  0.000000e+00
   endloop
 endfacet
 facet normal  2.393157e-01  9.709418e-01 -0.000000e+00
   outer loop
     vertex  8.437568e-01  6.948962e+00  0.000000e+00
     vertex  8.437568e-01  6.948962e+00  1.000000e+01
     vertex  2.482234e+00  6.545114e+00  0.000000e+00
   endloop
 endfacet
 facet normal  0.000000e+00  1.000000e+00  0.000000e+00
   outer loop
     vertex -8.437568e-01  6.948962e+00  0.000000e+00
     vertex -8.437568e-01  6.948962e+00  1.000000e+01
     vertex  8.437568e-01  6.948962e+00  1.000000e+01
   endloop
 endfacet
 facet normal  0.000000e+00  1.000000e+00  0.000000e+00
   outer loop
     vertex -8.437568e-01  6.948962e+00  0.000000e+00
     vertex  8.437568e-01  6.948962e+00  1.000000e+01
     vertex  8.437568e-01  6.948962e+00  0.000000e+00
   endloop
 endfacet
 facet normal -2.393157e-01  9.709418e-01  0.000000e+00
   outer loop
     vertex -2.482234e+00  6.545114e+00  0.000000e+00
     vertex -2.482234e+00  6.545114e+00  1.000000e+01
     vertex -8.437568e-01  6.948962e+00  1.000000e+01
   endloop
 endfacet
 facet normal -2.393157e-01  9.709418e-01  0.000000e+00
   outer loop
     vertex -2.482234e+00  6.545114e+00  0.000000e+00
     vertex -8.437568e-01  6.948962e+00  1.000000e+01
     vertex -8.437568e-01  6.948962e+00  0.000000e+00
   endloop
 endfacet
 facet normal -4.647232e-01  8.854560e-01  0.000000e+00
   outer loop
     vertex -3.976453e+00  5.760887e+00  0.000000e+00
     vertex -3.976453e+00  5.760887e+00  1.000000e+01
     vertex -2.482234e+00  6.545114e+00  1.000000e+01
   endloop
 endfacet
 facet normal -4.647232e-01  8.854560e-01  0.000000e+00
   outer loop
     vertex -3.976453e+00  5.760887e+00  0.000000e+00
     vertex -2.482234e+00  6.545114e+00  1.000000e+01
     vertex -2.482234e+00  6.545114e+00  0.000000e+00
   endloop
 endfacet
 facet normal -6.631227e-01  7.485107e-01  0.000000e+00
   outer loop
     vertex -5.239575e+00  4.641859e+00  0.000000e+00
     vertex -5.239575e+00  4.641859e+00  1.000000e+01
     vertex -3.976453e+00  5.760887e+00  1.000000e+01
   endloop
 endfacet
 facet normal -8.229839e-01  5.680647e-01  0.000000e+00
   outer loop
     vertex -5.239575e+00  4.641859e+00  0.000000e+00
     vertex -6.198192e+00  3.253062e+00  1.000000e+01
     vertex -5.239575e+00  4.641859e+00  1.000000e+01
   endloop
 endfacet
 facet normal -6.631227e-01  7.485107e-01  0.000000e+00
   outer loop
     vertex -5.239575e+00  4.641859e+00  0.000000e+00
     vertex -3.976453e+00  5.760887e+00  1.000000e+01
     vertex -3.976453e+00  5.760887e+00  0.000000e+00
   endloop
 endfacet
 facet normal -8.229839e-01  5.680647e-01  0.000000e+00
   outer loop
     vertex -6.198192e+00  3.253062e+00  0.000000e+00
     vertex -6.198192e+00  3.253062e+00  1.000000e+01
     vertex -5.239575e+00  4.641859e+00  0.000000e+00
   endloop
 endfacet
 facet normal -9.350162e-01  3.546049e-01  0.000000e+00
   outer loop
     vertex -6.198192e+00  3.253062e+00  0.000000e+00
     vertex -6.796593e+00  1.675210e+00  1.000000e+01
     vertex -6.198192e+00  3.253062e+00  1.000000e+01
   endloop
 endfacet
 facet normal -9.350162e-01  3.546049e-01  0.000000e+00
   outer loop
     vertex -6.796593e+00  1.675210e+00  0.000000e+00
     vertex -6.796593e+00  1.675210e+00  1.000000e+01
     vertex -6.198192e+00  3.253062e+00  0.000000e+00
   endloop
 endfacet
 facet normal -9.927089e-01  1.205367e-01  0.000000e+00
   outer loop
     vertex -7.000000e+00  7.074502e-15  0.000000e+00
     vertex -6.796593e+00  1.675210e+00  1.000000e+01
     vertex -6.796593e+00  1.675210e+00  0.000000e+00
   endloop
 endfacet
 facet normal -9.927089e-01  1.205367e-01  0.000000e+00
   outer loop
     vertex -7.000000e+00  7.074502e-15  0.000000e+00
     vertex -7.000000e+00  7.074502e-15  1.000000e+01
     vertex -6.796593e+00  1.675210e+00  1.000000e+01
   endloop
 endfacet
 facet normal -9.927089e-01 -1.205367e-01  0.000000e+00
   outer loop
     vertex -7.000000e+00  7.074502e-15  0.000000e+00
     vertex -6.796593e+00 -1.675210e+00  1.000000e+01
     vertex -7.000000e+00  7.074502e-15  1.000000e+01
   endloop
 endfacet
 facet normal -9.350162e-01 -3.546049e-01  0.000000e+00
   outer loop
     vertex -6.796593e+00 -1.675210e+00  0.000000e+00
     vertex -6.198192e+00 -3.253062e+00  1.000000e+01
     vertex -6.796593e+00 -1.675210e+00  1.000000e+01
   endloop
 endfacet
 facet normal -9.927089e-01 -1.205367e-01  0.000000e+00
   outer loop
     vertex -6.796593e+00 -1.675210e+00  0.000000e+00
     vertex -6.796593e+00 -1.675210e+00  1.000000e+01
     vertex -7.000000e+00  7.074502e-15  0.000000e+00
   endloop
 endfacet
 facet normal -9.350162e-01 -3.546049e-01  0.000000e+00
   outer loop
     vertex -6.198192e+00 -3.253062e+00  0.000000e+00
     vertex -6.198192e+00 -3.253062e+00  1.000000e+01
     vertex -6.796593e+00 -1.675210e+00  0.000000e+00
   endloop
 endfacet
 facet normal -8.229839e-01 -5.680647e-01  0.000000e+00
   outer loop
     vertex -5.239575e+00 -4.641859e+00  0.000000e+00
     vertex -5.239575e+00 -4.641859e+00  1.000000e+01
     vertex -6.198192e+00 -3.253062e+00  1.000000e+01
   endloop
 endfacet
 facet normal -8.229839e-01 -5.680647e-01  0.000000e+00
   outer loop
     vertex -5.239575e+00 -4.641859e+00  0.000000e+00
     vertex -6.198192e+00 -3.253062e+00  1.000000e+01
     vertex -6.198192e+00 -3.253062e+00  0.000000e+00
   endloop
 endfacet
 facet normal -6.631227e-01 -7.485107e-01  0.000000e+00
   outer loop
     vertex -3.976453e+00 -5.760887e+00  0.000000e+00
     vertex -3.976453e+00 -5.760887e+00  1.000000e+01
     vertex -5.239575e+00 -4.641859e+00  1.000000e+01
   endloop
 endfacet
 facet normal -6.631227e-01 -7.485107e-01  0.000000e+00
   outer loop
     vertex -3.976453e+00 -5.760887e+00  0.000000e+00
     vertex -5.239575e+00 -4.641859e+00  1.000000e+01
     vertex -5.239575e+00 -4.641859e+00  0.000000e+00
   endloop
 endfacet
 facet normal -4.647232e-01 -8.854560e-01  0.000000e+00
   outer loop
     vertex -2.482234e+00 -6.545114e+00  0.000000e+00
     vertex -2.482234e+00 -6.545114e+00  1.000000e+01
     vertex -3.976453e+00 -5.760887e+00  1.000000e+01
   endloop
 endfacet
 facet normal -4.647232e-01 -8.854560e-01  0.000000e+00
   outer loop
     vertex -2.482234e+00 -6.545114e+00  0.000000e+00
     vertex -3.976453e+00 -5.760887e+00  1.000000e+01
     vertex -3.976453e+00 -5.760887e+00  0.000000e+00
   endloop
 endfacet
 facet normal -2.393157e-01 -9.709418e-01  0.000000e+00
   outer loop
     vertex -8.437568e-01 -6.948962e+00  0.000000e+00
     vertex -8.437568e-01 -6.948962e+00  1.000000e+01
     vertex -2.482234e+00 -6.545114e+00  1.000000e+01
   endloop
 endfacet
 facet normal -2.105295e-15 -1.000000e+00  0.000000e+00
   outer loop
     vertex -8.437568e-01 -6.948962e+00  0.000000e+00
     vertex  8.437568e-01 -6.948962e+00  1.000000e+01
     vertex -8.437568e-01 -6.948962e+00  1.000000e+01
   endloop
 endfacet
 facet normal -2.393157e-01 -9.709418e-01  0.000000e+00
   outer loop
     vertex -8.437568e-01 -6.948962e+00  0.000000e+00
     vertex -2.482234e+00 -6.545114e+00  1.000000e+01
     vertex -2.482234e+00 -6.545114e+00  0.000000e+00
   endloop
 endfacet
 facet normal -2.105295e-15 -1.000000e+00  0.000000e+00
   outer loop
     vertex  8.437568e-01 -6.948962e+00  0.000000e+00
     vertex  8.437568e-01 -6.948962e+00  1.000000e+01
     vertex -8.437568e-01 -6.948962e+00  0.000000e+00
   endloop
 endfacet
 facet normal  2.393157e-01 -9.709418e-01  0.000000e+00
   outer loop
     vertex  2.482234e+00 -6.545114e+00  0.000000e+00
     vertex  2.482234e+00 -6.545114e+00  1.000000e+01
     vertex  8.437568e-01 -6.948962e+00  1.000000e+01
   endloop
 endfacet
 facet normal  2.393157e-01 -9.709418e-01  0.000000e+00
   outer loop
     vertex  2.482234e+00 -6.545114e+00  0.000000e+00
     vertex  8.437568e-01 -6.948962e+00  1.000000e+01
     vertex  8.437568e-01 -6.948962e+00  0.000000e+00
   endloop
 endfacet
 facet normal  4.647232e-01 -8.854560e-01  0.000000e+00
   outer loop
     vertex  3.976453e+00 -5.760887e+00  0.000000e+00
     vertex  3.976453e+00 -5.760887e+00  1.000000e+01
     vertex  2.482234e+00 -6.545114e+00  1.000000e+01
   endloop
 endfacet
 facet normal  6.631227e-01 -7.485107e-01  0.000000e+00
   outer loop
     vertex  3.976453e+00 -5.760887e+00  0.000000e+00
     vertex  5.239575e+00 -4.641859e+00  1.000000e+01
     vertex  3.976453e+00 -5.760887e+00  1.000000e+01
   endloop
 endfacet
 facet normal  4.647232e-01 -8.854560e-01  0.000000e+00
   outer loop
     vertex  3.976453e+00 -5.760887e+00  0.000000e+00
     vertex  2.482234e+00 -6.545114e+00  1.000000e+01
     vertex  2.482234e+00 -6.545114e+00  0.000000e+00
   endloop
 endfacet
 facet normal  8.229839e-01 -5.680647e-01  0.000000e+00
   outer loop
     vertex  5.239575e+00 -4.641859e+00  0.000000e+00
     vertex  6.198192e+00 -3.253062e+00  1.000000e+01
     vertex  5.239575e+00 -4.641859e+00  1.000000e+01
   endloop
 endfacet
 facet normal  6.631227e-01 -7.485107e-01  0.000000e+00
   outer loop
     vertex  5.239575e+00 -4.641859e+00  0.000000e+00
     vertex  5.239575e+00 -4.641859e+00  1.000000e+01
     vertex  3.976453e+00 -5.760887e+00  0.000000e+00
   endloop
 endfacet
 facet normal  8.229839e-01 -5.680647e-01  0.000000e+00
   outer loop
     vertex  6.198192e+00 -3.253062e+00  0.000000e+00
     vertex  6.198192e+00 -3.253062e+00  1.000000e+01
     vertex  5.239575e+00 -4.641859e+00  0.000000e+00
   endloop
 endfacet
 facet normal  9.350162e-01 -3.546049e-01  0.000000e+00
   outer loop
     vertex  6.796593e+00 -1.675210e+00  0.000000e+00
     vertex  6.796593e+00 -1.675210e+00  1.000000e+01
     vertex  6.198192e+00 -3.253062e+00  1.000000e+01
   endloop
 endfacet
 facet normal  9.927089e-01 -1.205367e-01  0.000000e+00
   outer loop
     vertex  6.796593e+00 -1.675210e+00  0.000000e+00
     vertex  7.000000e+00  0.000000e+00  1.000000e+01
     vertex  6.796593e+00 -1.675210e+00  1.000000e+01
   endloop
 endfacet
 facet normal  9.350162e-01 -3.546049e-01  0.000000e+00
   outer loop
     vertex  6.796593e+00 -1.675210e+00  0.000000e+00
     vertex  6.198192e+00 -3.253062e+00  1.000000e+01
     vertex  6.198192e+00 -3.253062e+00  0.000000e+00
   endloop
 endfacet
 facet normal  9.927089e-01 -1.205367e-01  0.000000e+00
   outer loop
     vertex  7.000000e+00  0.000000e+00  0.000000e+00
     vertex  7.000000e+00  0.000000e+00  1.000000e+01
     vertex  6.796593e+00 -1.675210e+00  0.000000e+00
   endloop
 endfacet
 facet normal  0.000000e+00  0.000000e+00 -1.000000e+00
   outer loop
     vertex -6.796593e+00  1.675210e+00  0.000000e+00
     vertex -6.796593e+00 -1.675210e+00  0.000000e+00
     vertex -7.000000e+00  7.074502e-15  0.000000e+00
   endloop
 endfacet
 facet normal  0.000000e+00 -0.000000e+00 -1.000000e+00
   outer loop
     vertex -6.796593e+00  1.675210e+00  0.000000e+00
     vertex -6.198192e+00 -3.253062e+00  0.000000e+00
     vertex -6.796593e+00 -1.675210e+00  0.000000e+00
   endloop
 endfacet
 facet normal  0.000000e+00  0.000000e+00 -1.000000e+00
   outer loop
     vertex -6.796593e+00  1.675210e+00  0.000000e+00
     vertex -5.239575e+00 -4.641859e+00  0.000000e+00
     vertex -6.198192e+00 -3.253062e+00  0.000000e+00
   endloop
 endfacet
 facet normal  0.000000e+00  0.000000e+00 -1.000000e+00
   outer loop
     vertex -6.796593e+00  1.675210e+00  0.000000e+00
     vertex -3.976453e+00 -5.760887e+00  0.000000e+00
     vertex -5.239575e+00 -4.641859e+00  0.000000e+00
   endloop
 endfacet
 facet normal  0.000000e+00  0.000000e+00 -1.000000e+00
   outer loop
     vertex -6.796593e+00  1.675210e+00  0.000000e+00
     vertex -2.482234e+00 -6.545114e+00  0.000000e+00
     vertex -3.976453e+00 -5.760887e+00  0.000000e+00
   endloop
 endfacet
 facet normal -0.000000e+00  0.000000e+00 -1.000000e+00
   outer loop
     vertex  2.482234e+00 -6.545114e+00  0.000000e+00
     vertex -8.437568e-01 -6.948962e+00  0.000000e+00
     vertex -2.482234e+00 -6.545114e+00  0.000000e+00
   endloop
 endfacet
 facet normal  0.000000e+00  0.000000e+00 -1.000000e+00
   outer loop
     vertex  2.482234e+00 -6.545114e+00  0.000000e+00
     vertex  8.437568e-01 -6.948962e+00  0.000000e+00
     vertex -8.437568e-01 -6.948962e+00  0.000000e+00
   endloop
 endfacet
 facet normal  0.000000e+00  0.000000e+00 -1.000000e+00
   outer loop
     vertex -2.482234e+00  6.545114e+00  0.000000e+00
     vertex -5.239575e+00  4.641859e+00  0.000000e+00
     vertex -3.976453e+00  5.760887e+00  0.000000e+00
   endloop
 endfacet
 facet normal  0.000000e+00  0.000000e+00 -1.000000e+00
   outer loop
     vertex -2.482234e+00  6.545114e+00  0.000000e+00
     vertex -6.198192e+00  3.253062e+00  0.000000e+00
     vertex -5.239575e+00  4.641859e+00  0.000000e+00
   endloop
 endfacet
 facet normal  0.000000e+00  0.000000e+00 -1.000000e+00
   outer loop
     vertex -2.482234e+00  6.545114e+00  0.000000e+00
     vertex -6.796593e+00  1.675210e+00  0.000000e+00
     vertex -6.198192e+00  3.253062e+00  0.000000e+00
   endloop
 endfacet
 facet normal  0.000000e+00  0.000000e+00 -1.000000e+00
   outer loop
     vertex -2.482234e+00  6.545114e+00  0.000000e+00
     vertex -2.482234e+00 -6.545114e+00  0.000000e+00
     vertex -6.796593e+00  1.675210e+00  0.000000e+00
   endloop
 endfacet
 facet normal  0.000000e+00  0.000000e+00 -1.000000e+00
   outer loop
     vertex  6.796593e+00 -1.675210e+00  0.000000e+00
     vertex  3.976453e+00 -5.760887e+00  0.000000e+00
     vertex  2.482234e+00 -6.545114e+00  0.000000e+00
   endloop
 endfacet
 facet normal  0.000000e+00  0.000000e+00 -1.000000e+00
   outer loop
     vertex  6.796593e+00 -1.675210e+00  0.000000e+00
     vertex  5.239575e+00 -4.641859e+00  0.000000e+00
     vertex  3.976453e+00 -5.760887e+00  0.000000e+00
   endloop
 endfacet
 facet normal  0.000000e+00  0.000000e+00 -1.000000e+00
   outer loop
     vertex  6.796593e+00 -1.675210e+00  0.000000e+00
     vertex  6.198192e+00 -3.253062e+00  0.000000e+00
     vertex  5.239575e+00 -4.641859e+00  0.000000e+00
   endloop
 endfacet
 facet normal  0.000000e+00 -0.000000e+00 -1.000000e+00
   outer loop
     vertex -8.437568e-01  6.948962e+00  0.000000e+00
     vertex  2.482234e+00 -6.545114e+00  0.000000e+00
     vertex -2.482234e+00 -6.545114e+00  0.000000e+00
   endloop
 endfacet
 facet normal  0.000000e+00  0.000000e+00 -1.000000e+00
   outer loop
     vertex -8.437568e-01  6.948962e+00  0.000000e+00
     vertex -2.482234e+00 -6.545114e+00  0.000000e+00
     vertex -2.482234e+00  6.545114e+00  0.000000e+00
   endloop
 endfacet
 facet normal  0.000000e+00  0.000000e+00 -1.000000e+00
   outer loop
     vertex  2.482234e+00  6.545114e+00  0.000000e+00
     vertex -8.437568e-01  6.948962e+00  0.000000e+00
     vertex  8.437568e-01  6.948962e+00  0.000000e+00
   endloop
 endfacet
 facet normal  0.000000e+00  0.000000e+00 -1.000000e+00
   outer loop
     vertex  6.198192e+00  3.253062e+00  0.000000e+00
     vertex  6.796593e+00  1.675210e+00  0.000000e+00
     vertex  7.000000e+00  0.000000e+00  0.000000e+00
   endloop
 endfacet
 facet normal -0.000000e+00  0.000000e+00 -1.000000e+00
   outer loop
     vertex  3.976453e+00  5.760887e+00  0.000000e+00
     vertex  2.482234e+00 -6.545114e+00  0.000000e+00
     vertex -8.437568e-01  6.948962e+00  0.000000e+00
   endloop
 endfacet
 facet normal  0.000000e+00 -0.000000e+00 -1.000000e+00
   outer loop
     vertex  3.976453e+00  5.760887e+00  0.000000e+00
     vertex  6.796593e+00 -1.675210e+00  0.000000e+00
     vertex  2.482234e+00 -6.545114e+00  0.000000e+00
   endloop
 endfacet
 facet normal  0.000000e+00  0.000000e+00 -1.000000e+00
   outer loop
     vertex  3.976453e+00  5.760887e+00  0.000000e+00
     vertex -8.437568e-01  6.948962e+00  0.000000e+00
     vertex  2.482234e+00  6.545114e+00  0.000000e+00
   endloop
 endfacet
 facet normal  0.000000e+00  0.000000e+00 -1.000000e+00
   outer loop
     vertex  5.239575e+00  4.641859e+00  0.000000e+00
     vertex  7.000000e+00  0.000000e+00  0.000000e+00
     vertex  6.796593e+00 -1.675210e+00  0.000000e+00
   endloop
 endfacet
 facet normal  0.000000e+00  0.000000e+00 -1.000000e+00
   outer loop
     vertex  5.239575e+00  4.641859e+00  0.000000e+00
     vertex  6.198192e+00  3.253062e+00  0.000000e+00
     vertex  7.000000e+00  0.000000e+00  0.000000e+00
   endloop
 endfacet
 facet normal -0.000000e+00 -0.000000e+00 -1.000000e+00
   outer loop
     vertex  5.239575e+00  4.641859e+00  0.000000e+00
     vertex  6.796593e+00 -1.675210e+00  0.000000e+00
     vertex  3.976453e+00  5.760887e+00  0.000000e+00
   endloop
 endfacet
 facet normal  0.000000e+00  0.000000e+00  1.000000e+00
   outer loop
     vertex -6.796593e+00  1.675210e+00  1.000000e+01
     vertex -7.000000e+00  7.074502e-15  1.000000e+01
     vertex -6.796593e+00 -1.675210e+00  1.000000e+01
   endloop
 endfacet
 facet normal  0.000000e+00  0.000000e+00  1.000000e+00
   outer loop
     vertex -6.796593e+00  1.675210e+00  1.000000e+01
     vertex -6.796593e+00 -1.675210e+00  1.000000e+01
     vertex -6.198192e+00 -3.253062e+00  1.000000e+01
   endloop
 endfacet
 facet normal  0.000000e+00  0.000000e+00  1.000000e+00
   outer loop
     vertex -6.796593e+00  1.675210e+00  1.000000e+01
     vertex -6.198192e+00 -3.253062e+00  1.000000e+01
     vertex -5.239575e+00 -4.641859e+00  1.000000e+01
   endloop
 endfacet
 facet normal  0.000000e+00  0.000000e+00  1.000000e+00
   outer loop
     vertex -6.796593e+00  1.675210e+00  1.000000e+01
     vertex -5.239575e+00 -4.641859e+00  1.000000e+01
     vertex -3.976453e+00 -5.760887e+00  1.000000e+01
   endloop
 endfacet
 facet normal  0.000000e+00  0.000000e+00  1.000000e+00
   outer loop
     vertex -6.796593e+00  1.675210e+00  1.000000e+01
     vertex -3.976453e+00 -5.760887e+00  1.000000e+01
     vertex -2.482234e+00 -6.545114e+00  1.000000e+01
   endloop
 endfacet
 facet normal  0.000000e+00  0.000000e+00  1.000000e+00
   outer loop
     vertex  2.482234e+00 -6.545114e+00  1.000000e+01
     vertex -2.482234e+00 -6.545114e+00  1.000000e+01
     vertex -8.437568e-01 -6.948962e+00  1.000000e+01
   endloop
 endfacet
 facet normal  0.000000e+00  0.000000e+00  1.000000e+00
   outer loop
     vertex  2.482234e+00 -6.545114e+00  1.000000e+01
     vertex -8.437568e-01 -6.948962e+00  1.000000e+01
     vertex  8.437568e-01 -6.948962e+00  1.000000e+01
   endloop
 endfacet
 facet normal  0.000000e+00  0.000000e+00  1.000000e+00
   outer loop
     vertex -2.482234e+00  6.545114e+00  1.000000e+01
     vertex -3.976453e+00  5.760887e+00  1.000000e+01
     vertex -5.239575e+00  4.641859e+00  1.000000e+01
   endloop
 endfacet
 facet normal  0.000000e+00  0.000000e+00  1.000000e+00
   outer loop
     vertex -2.482234e+00  6.545114e+00  1.000000e+01
     vertex -5.239575e+00  4.641859e+00  1.000000e+01
     vertex -6.198192e+00  3.253062e+00  1.000000e+01
   endloop
 endfacet
 facet normal  0.000000e+00  0.000000e+00  1.000000e+00
   outer loop
     vertex -2.482234e+00  6.545114e+00  1.000000e+01
     vertex -6.198192e+00  3.253062e+00  1.000000e+01
     vertex -6.796593e+00  1.675210e+00  1.000000e+01
   endloop
 endfacet
 facet normal  0.000000e+00  0.000000e+00  1.000000e+00
   outer loop
     vertex -2.482234e+00  6.545114e+00  1.000000e+01
     vertex -6.796593e+00  1.675210e+00  1.000000e+01
     vertex -2.482234e+00 -6.545114e+00  1.000000e+01
   endloop
 endfacet
 facet normal  0.000000e+00  0.000000e+00  1.000000e+00
   outer loop
     vertex  6.796593e+00 -1.675210e+00  1.000000e+01
     vertex  2.482234e+00 -6.545114e+00  1.000000e+01
     vertex  3.976453e+00 -5.760887e+00  1.000000e+01
   endloop
 endfacet
 facet normal  0.000000e+00  0.000000e+00  1.000000e+00
   outer loop
     vertex  6.796593e+00 -1.675210e+00  1.000000e+01
     vertex  3.976453e+00 -5.760887e+00  1.000000e+01
     vertex  5.239575e+00 -4.641859e+00  1.000000e+01
   endloop
 endfacet
 facet normal  0.000000e+00  0.000000e+00  1.000000e+00
   outer loop
     vertex  6.796593e+00 -1.675210e+00  1.000000e+01
     vertex  5.239575e+00 -4.641859e+00  1.000000e+01
     vertex  6.198192e+00 -3.253062e+00  1.000000e+01
   endloop
 endfacet
 facet normal  0.000000e+00  0.000000e+00  1.000000e+00
   outer loop
     vertex -8.437568e-01  6.948962e+00  1.000000e+01
     vertex -2.482234e+00 -6.545114e+00  1.000000e+01
     vertex  2.482234e+00 -6.545114e+00  1.000000e+01
   endloop
 endfacet
 facet normal  0.000000e+00  0.000000e+00  1.000000e+00
   outer loop
     vertex -8.437568e-01  6.948962e+00  1.000000e+01
     vertex -2.482234e+00  6.545114e+00  1.000000e+01
     vertex -2.482234e+00 -6.545114e+00  1.000000e+01
   endloop
 endfacet
 facet normal  0.000000e+00  0.000000e+00  1.000000e+00
   outer loop
     vertex  2.482234e+00  6.545114e+00  1.000000e+01
     vertex  8.437568e-01  6.948962e+00  1.000000e+01
     vertex -8.437568e-01  6.948962e+00  1.000000e+01
   endloop
 endfacet
 facet normal  0.000000e+00  0.000000e+00  1.000000e+00
   outer loop
     vertex  6.198192e+00  3.253062e+00  1.000000e+01
     vertex  7.000000e+00  0.000000e+00  1.000000e+01
     vertex  6.796593e+00  1.675210e+00  1.000000e+01
   endloop
 endfacet
 facet normal  0.000000e+00  0.000000e+00  1.000000e+00
   outer loop
     vertex  3.976453e+00  5.760887e+00  1.000000e+01
     vertex -8.437568e-01  6.948962e+00  1.000000e+01
     vertex  2.482234e+00 -6.545114e+00  1.000000e+01
   endloop
 endfacet
 facet normal  0.000000e+00  0.000000e+00  1.000000e+00
   outer loop
     vertex  3.976453e+00  5.760887e+00  1.000000e+01
     vertex  2.482234e+00 -6.545114e+00  1.000000e+01
     vertex  6.796593e+00 -1.675210e+00  1.000000e+01
   endloop
 endfacet
 facet normal  0.000000e+00  0.000000e+00  1.000000e+00
   outer loop
     vertex  3.976453e+00  5.760887e+00  1.000000e+01
     vertex  2.482234e+00  6.545114e+00  1.000000e+01
     vertex -8.437568e-01  6.948962e+00  1.000000e+01
   endloop
 endfacet
 facet normal  0.000000e+00  0.000000e+00  1.000000e+00
   outer loop
     vertex  5.239575e+00  4.641859e+00  1.000000e+01
     vertex  6.796593e+00 -1.675210e+00  1.000000e+01
     vertex  7.000000e+00  0.000000e+00  1.000000e+01
   endloop
 endfacet
 facet normal  0.000000e+00  0.000000e+00  1.000000e+00
   outer loop
     vertex  5.239575e+00  4.641859e+00  1.000000e+01
     vertex  7.000000e+00  0.000000e+00  1.000000e+01
     vertex  6.198192e+00  3.253062e+00  1.000000e+01
   endloop
 endfacet
 facet normal  0.000000e+00  0.000000e+00  1.000000e+00
   outer loop
     vertex  5.239575e+00  4.641859e+00  1.000000e+01
     vertex  3.976453e+00  5.760887e+00  1.000000e+01
     vertex  6.796593e+00 -1.675210e+00  1.000000e+01
   endloop
 endfacet
endsolid
