{"accessors": [{"bufferView": 0, "byteOffset": 0, "componentType": 5126, "count": 28, "max": [7.0, 6.948962118686378, 10.0], "min": [-6.796592721982365, -6.948962118686379, 0.0], "type": "VEC3"}, {"bufferView": 0, "byteOffset": 336, "componentType": 5126, "count": 13, "max": [7.0, 6.948962118686378, 0.0], "min": [-6.796592721982365, -6.948962118686379, 0.0], "type": "VEC3"}, {"bufferView": 0, "byteOffset": 492, "componentType": 5126, "count": 13, "max": [7.0, 6.948962118686378, 10.0], "min": [-6.796592721982365, -6.948962118686379, 10.0], "type": "VEC3"}, {"bufferView": 1, "byteOffset": 0, "componentType": 5126, "count": 28, "type": "VEC3"}, {"bufferView": 1, "byteOffset": 336, "componentType": 5126, "count": 13, "type": "VEC3"}, {"bufferView": 1, "byteOffset": 492, "componentType": 5126, "count": 13, "type": "VEC3"}, {"bufferView": 2, "byteOffset": 0, "componentType": 5123, "count": 78, "type": "SCALAR"}, {"bufferView": 2, "byteOffset": 156, "componentType": 5123, "count": 33, "type": "SCALAR"}, {"bufferView": 2, "byteOffset": 224, "componentType": 5123, "count": 33, "type": "SCALAR"}], "asset": {"generator": "Open CASCADE Technology 7.7 [dev.opencascade.org]", "version": "2.0", "extras": {"Authors": "pythonocc"}}, "bufferViews": [{"buffer": 0, "byteLength": 648, "byteOffset": 0, "byteStride": 12, "target": 34962}, {"buffer": 0, "byteLength": 648, "byteOffset": 648, "byteStride": 12, "target": 34962}, {"buffer": 0, "byteLength": 292, "byteOffset": 1296, "target": 34963}], "buffers": [{"byteLength": 1588, "uri": "data:application/octet-stream;base64,"}], "meshes": [{"name": "SOLID", "primitives": [{"attributes": {"NORMAL": 3, "POSITION": 0}, "indices": 6, "mode": 4}, {"attributes": {"NORMAL": 4, "POSITION": 1}, "indices": 7, "mode": 4}, {"attributes": {"NORMAL": 5, "POSITION": 2}, "indices": 8, "mode": 4}]}], "nodes": [{"children": [1], "name": "ASSEMBLY"}, {"children": [2], "name": "=>[0:1:1:2]"}, {"mesh": 0, "name": "=>[0:1:1:3]"}], "scene": 0, "scenes": [{"nodes": [0]}]}